# xmcd
#
# Track frame offsets:
#	225
#	20874
#	39040
#	51216
#	70399
#	88442
#	101426
#	116299
#	133566
#	148433
#	167566
#	180711
#	197803
#	213666
#	226767
#	243649
#
# Disc length: 3380 seconds
#
# Revision: 1
# Processed by: cddbd v1.5.2PL0 Copyright (c) Steve Scherf et al.
# Submitted via: audiograbber 1.83.01
#
DISCID=ec0d3110
DTITLE=Dick and Christa Hughes - 21st Century Blues
DYEAR=2010
DGENRE=Blues
TTITLE0=Down To Steamboat Tennessee
TTITLE1=St Louis Blues
TTITLE2=Gulf Coast Blues
TTITLE3=Beer Drinking Woman
TTITLE4=Summertime
TTITLE5=Winin' Boy
TTITLE6=Blowing Vancey's Bugle
TTITLE7=Sugar
TTITLE8=Good Time Flat Blues
TTITLE9=Weed Smoker's Dream
TTITLE10=Backwater Blues
TTITLE11=Good Luck
TTITLE12=Willow Weep For Me
TTITLE13=Young Woman's Blues
TTITLE14=After You've Gone
TTITLE15=You Go To My Head
EXTD=
EXTT0=
EXTT1=
EXTT2=
EXTT3=
EXTT4=
EXTT5=
EXTT6=
EXTT7=
EXTT8=
EXTT9=
EXTT10=
EXTT11=
EXTT12=
EXTT13=
EXTT14=
EXTT15=
PLAYORDER=
